<svg width="192.32000732421875px" height="48.8px" xmlns="http://www.w3.org/2000/svg" viewBox="153.83999633789062 50.6 192.32000732421875 48.8" style="background: none;" preserveAspectRatio="xMidYMid"><defs><filter id="editing-hover" x="-100%" y="-100%" width="300%" height="300%"><feFlood flood-color="#009ef7" result="flood"></feFlood><feComposite operator="in" in2="SourceAlpha" in="flood" result="shadow"></feComposite><feOffset dx="-0.5" dy="-1.3" in="SourceGraphic" result="offset-1"></feOffset><feOffset dx="0.5" dy="1.3" in="shadow" result="offset-2"></feOffset><feMerge><feMergeNode in="offset-2"></feMergeNode><feMergeNode in="offset-1"></feMergeNode></feMerge></filter></defs><g filter="url(#editing-hover)"><g transform="translate(187.95708847045898, 84.18500137329102)"><path d="M5.25-2.63L0-2.63L0-15.75L2.63-15.75L2.63-18.38L5.25-18.38L5.25-21L13.13-21L13.13-18.38L15.75-18.38L15.75-15.75L18.38-15.75L18.38-2.63L13.13-2.63L13.13-7.88L5.25-7.88L5.25-2.63ZM5.25-15.75L5.25-10.50L13.13-10.50L13.13-15.75L10.50-15.75L10.50-18.38L7.88-18.38L7.88-15.75L5.25-15.75ZM36.75-2.63L21-2.63L21-5.25L34.13-5.25L34.13-7.88L23.63-7.88L23.63-10.50L21-10.50L21-13.13L23.63-13.13L23.63-15.75L36.75-15.75L36.75-13.13L26.25-13.13L26.25-10.50L36.75-10.50L36.75-7.88L39.38-7.88L39.38-5.25L36.75-5.25L36.75-2.63ZM47.25-2.63L42-2.63L42-21L47.25-21L47.25-15.75L57.75-15.75L57.75-13.13L60.38-13.13L60.38-2.63L55.13-2.63L55.13-13.13L47.25-13.13L47.25-2.63ZM76.13-2.63L65.63-2.63L65.63-5.25L73.50-5.25L73.50-7.88L76.13-7.88L76.13-10.50L65.63-10.50L65.63-13.13L63-13.13L63-18.38L65.63-18.38L65.63-21L78.75-21L78.75-18.38L81.38-18.38L81.38-7.88L78.75-7.88L78.75-5.25L76.13-5.25L76.13-2.63ZM68.25-18.38L68.25-13.13L76.13-13.13L76.13-18.38L68.25-18.38ZM97.13-2.63L86.63-2.63L86.63-5.25L94.50-5.25L94.50-7.88L97.13-7.88L97.13-10.50L86.63-10.50L86.63-13.13L84-13.13L84-18.38L86.63-18.38L86.63-21L99.75-21L99.75-18.38L102.38-18.38L102.38-7.88L99.75-7.88L99.75-5.25L97.13-5.25L97.13-2.63ZM89.25-18.38L89.25-13.13L97.13-13.13L97.13-18.38L89.25-18.38ZM118.13-2.63L107.63-2.63L107.63-5.25L115.50-5.25L115.50-7.88L118.13-7.88L118.13-10.50L107.63-10.50L107.63-13.13L105-13.13L105-18.38L107.63-18.38L107.63-21L120.75-21L120.75-18.38L123.38-18.38L123.38-7.88L120.75-7.88L120.75-5.25L118.13-5.25L118.13-2.63ZM110.25-18.38L110.25-13.13L118.13-13.13L118.13-18.38L110.25-18.38Z" fill="#ffffff"></path></g></g><style>text {
  font-size: 64px;
  font-family: Arial Black;
  dominant-baseline: central;
  text-anchor: middle;
}</style></svg> 