<svg width="124" height="19" viewBox="0 0 124 19" fill="none" xmlns="http://www.w3.org/2000/svg">
<path d="M5.25 18.37H0V5.25H2.63V2.62H5.25V0H13.13V2.62H15.75V5.25H18.38V18.37H13.13V13.12H5.25V18.37ZM5.25 5.25V10.5H13.13V5.25H10.5V2.62H7.88V5.25H5.25ZM36.75 18.37H21V15.75H34.13V13.12H23.63V10.5H21V7.87H23.63V5.25H36.75V7.87H26.25V10.5H36.75V13.12H39.38V15.75H36.75V18.37ZM47.25 18.37H42V0H47.25V5.25H57.75V7.87H60.38V18.37H55.13V7.87H47.25V18.37ZM76.13 18.37H65.63V15.75H73.5V13.12H76.13V10.5H65.63V7.87H63V2.62H65.63V0H78.75V2.62H81.38V13.12H78.75V15.75H76.13V18.37ZM68.25 2.62V7.87H76.13V2.62H68.25ZM97.13 18.37H86.63V15.75H94.5V13.12H97.13V10.5H86.63V7.87H84V2.62H86.63V0H99.75V2.62H102.38V13.12H99.75V15.75H97.13V18.37ZM89.25 2.62V7.87H97.13V2.62H89.25ZM118.13 18.37H107.63V15.75H115.5V13.12H118.13V10.5H107.63V7.87H105V2.62H107.63V0H120.75V2.62H123.38V13.12H120.75V15.75H118.13V18.37ZM110.25 2.62V7.87H118.13V2.62H110.25Z" fill="white"/>
</svg>
