<?xml version="1.0" standalone="no"?>
<!DOCTYPE svg PUBLIC "-//W3C//DTD SVG 20010904//EN"
 "http://www.w3.org/TR/2001/REC-SVG-20010904/DTD/svg10.dtd">
<svg version="1.0" xmlns="http://www.w3.org/2000/svg"
 width="280.000000pt" height="280.000000pt" viewBox="0 0 280.000000 280.000000"
 preserveAspectRatio="xMidYMid meet">
<metadata>
Created by potrace 1.14, written by Peter Selinger 2001-2017
</metadata>
<g transform="translate(0.000000,280.000000) scale(0.100000,-0.100000)"
fill="#000000" stroke="none">
<path d="M1315 2622 c-5 -4 -90 -89 -189 -189 l-178 -181 82 -182 c134 -297
287 -618 310 -650 23 -33 57 -46 91 -35 12 4 98 82 190 173 187 182 197 198
180 288 -5 27 -17 72 -26 99 -16 47 -127 268 -162 322 l-16 24 -138 -137 -138
-138 -16 37 c-8 20 -42 98 -75 172 -33 75 -60 141 -60 148 0 7 42 55 94 106
l95 94 -15 29 c-16 31 -15 31 -29 20z m240 -693 c86 -174 92 -204 45 -250 -53
-53 -65 -43 -157 131 l-82 155 56 57 c32 32 59 58 60 58 2 0 37 -68 78 -151z"/>
<path d="M1793 1611 c-82 -66 -311 -304 -323 -336 -23 -60 15 -190 106 -364
36 -67 72 -134 81 -148 l16 -24 138 137 138 138 16 -37 c8 -20 42 -98 75 -172
33 -75 60 -141 60 -148 0 -7 -42 -55 -94 -106 l-95 -94 16 -30 15 -30 190 190
190 190 -62 139 c-151 338 -316 678 -341 705 -37 39 -67 37 -126 -10z m-46
-243 c6 -7 44 -79 86 -159 l76 -145 -59 -59 -59 -58 -75 152 c-87 175 -93 206
-47 252 31 31 62 37 78 17z"/>
<path d="M990 1423 c-85 -14 -314 -116 -427 -190 l-24 -16 137 -138 138 -138
-34 -15 c-19 -8 -98 -42 -174 -75 -76 -34 -144 -61 -150 -61 -6 0 -54 42 -105
94 l-94 95 -29 -15 c-15 -8 -28 -16 -28 -17 0 -2 84 -86 186 -188 118 -117
192 -183 203 -182 21 3 566 252 726 333 119 60 143 85 131 134 -9 36 -319 353
-363 372 -32 14 -46 15 -93 7z m161 -202 c31 -31 37 -62 17 -78 -7 -6 -79 -44
-159 -86 l-145 -76 -59 59 -58 59 152 75 c175 87 206 93 252 47z"/>
</g>
</svg>
